<svg xmlns="http://www.w3.org/2000/svg" viewBox="0 0 165.13 128.6"><defs><style>.cls-1{fill:#004a7a;}.cls-2{fill:#fff;}.cls-3{fill:none;stroke:#000;stroke-miterlimit:10;stroke-width:2px;}.cls-4{fill:#ff9d00;}</style></defs><g id="Camada_2" data-name="Camada 2"><path class="cls-1" d="M412.67,279.66c-1.64,6.12-14.61,54.68-15.59,71.94a2,2,0,0,0,2.07,2.09c8.2-.36,37.88-1.29,50.09,3.46,14.24,5.54,20.38,30.47,19.78,39.76,0,0,8.71-23.34,20.18-28.28l65-.78a2,2,0,0,0,1.8-1.19l4.18-9.43a23.93,23.93,0,0,0,2-9.69h0a23.71,23.71,0,0,0-.58-5.24L546.49,275a2,2,0,0,0-1.82-1.56c-9.68-.57-63.26-3.43-69.91,2.86,0,0-5.54-8.5-27.69-7.91-19.42.52-31.08,8.33-33.67,10.26A1.93,1.93,0,0,0,412.67,279.66Z" transform="translate(-397.08 -268.31)"/></g><g id="Folhas"><path id="Esquerda" class="cls-2" d="M416.81,283.48c-1.4,6.8-10.33,50.38-11.13,61.57a2,2,0,0,0,2.24,2.11c9.63-1.17,48.29-4.47,60.62,16.12a.5.5,0,0,0,.93-.24l2.09-80.21a2,2,0,0,0-1.09-1.83c-5.23-2.63-28-12.44-52.67,1.13A2,2,0,0,0,416.81,283.48Z" transform="translate(-397.08 -268.31)"/><path id="Direita" class="cls-2" d="M478.3,281.74,477.16,359a.5.5,0,0,0,.91.29,89.82,89.82,0,0,1,6.71-9.25,2,2,0,0,1,1.39-.59l65.62-1.14a2,2,0,0,0,2-2.3c-1.5-9.9-7.67-49.69-12.31-65.62a2,2,0,0,0-1.81-1.43c-8.12-.43-49.28-2.44-59.95.93A2,2,0,0,0,478.3,281.74Z" transform="translate(-397.08 -268.31)"/><g id="Detalhes_direita" data-name="Detalhes direita"><path class="cls-3" d="M426.69,292.47s11.67-7.12,31.65,2.77" transform="translate(-397.08 -268.31)"/><path class="cls-3" d="M423.33,325.42S435,318.3,455,328.19" transform="translate(-397.08 -268.31)"/><path class="cls-3" d="M426.69,303.45s11.67-7.12,31.65,2.77" transform="translate(-397.08 -268.31)"/><path class="cls-3" d="M424.3,314.44s11.67-7.12,31.64,2.77" transform="translate(-397.08 -268.31)"/></g><g id="Detalhes_Esquerda" data-name="Detalhes Esquerda"><path class="cls-4" d="M484.67,288.5l.73,38.6a2,2,0,0,0,2,2h53.81a2,2,0,0,0,2-2.19c-.7-7.57-3.31-32.66-7.5-40.35a2,2,0,0,0-1.69-1c-6.46-.12-39.92-.62-47.77,1A2,2,0,0,0,484.67,288.5Z" transform="translate(-397.08 -268.31)"/><ellipse class="cls-1" cx="119.52" cy="71.27" rx="6.23" ry="4.85"/></g></g></svg>