<svg xmlns="http://www.w3.org/2000/svg" viewBox="0 0 299.98 398.06"><defs><style>.cls-1{fill:#ffdab9;}.cls-1,.cls-10,.cls-11,.cls-12,.cls-13,.cls-14,.cls-15,.cls-2,.cls-3,.cls-4,.cls-5,.cls-6,.cls-7,.cls-8,.cls-9{stroke:#000;stroke-miterlimit:10;}.cls-2{fill:#ff9c00;}.cls-3{fill:#083b8a;}.cls-5{fill:#2bd6ee;}.cls-6{fill:#ccc;}.cls-7{fill:#deb887;}.cls-15,.cls-8{fill:#fff;}.cls-9{fill:#ff0;}.cls-10{fill:#bb4b00;}.cls-11{fill:#964b00;}.cls-12,.cls-13{fill:#3a6332;}.cls-13,.cls-14,.cls-15{stroke-width:0.5px;}.cls-14{fill:none;}</style></defs><g id="Pernas"><polygon class="cls-1" points="120.19 381.35 126.29 348.05 139.51 351.31 128.07 384.66 120.19 381.35"/><polygon class="cls-1" points="154.66 386.71 153.69 356.3 165.92 356.65 162.21 388.11 154.66 386.71"/></g><g id="Tênis"><path class="cls-2" d="M394.28,465.31a1.47,1.47,0,0,0-1.39-.15l-25.32,10.15s-6.08,4.63,35,1.52a.79.79,0,0,0,.73-.79v-9.15a1.28,1.28,0,0,0-1.74-1.2C399.74,466.39,396.82,467,394.28,465.31Z" transform="translate(-239.3 -80.79)"/><path class="cls-2" d="M359.15,460.15a.75.75,0,0,0-.75-.12l-36.77,14.48s-8.23,6.26,47.46,2a.85.85,0,0,0,.8-.85v-11a.82.82,0,0,0-.82-.82A15.54,15.54,0,0,1,359.15,460.15Z" transform="translate(-239.3 -80.79)"/></g><g id="Calça"><path class="cls-3" d="M390.07,438.14c6.92.66,9.82.66,16.74,1.32,2.48-13,5.67-74.12,5.67-74.12l-29.3,13.72C382,387,386.2,432.78,390.07,438.14Z" transform="translate(-239.3 -80.79)"/><path class="cls-3" d="M362.77,428.53l17.41,5.8s-.68-35.45,23.45-59.95a24.76,24.76,0,0,1,14.93-7.23l39-4.39,2.95-47.19s-58.22,13.5-73.25,25.63S369.89,360.49,362.77,428.53Z" transform="translate(-239.3 -80.79)"/></g><g id="Cabeça"><path class="cls-1" d="M487.52,215.32c-.79-2.87-4.75-5.45-17.51-4.18a1.91,1.91,0,0,1-1.93-1.09c-1.38-3-4.76-10.6-5.17-14.77a1.89,1.89,0,0,0-1.32-1.59l-.89-.28a1.9,1.9,0,0,1-1.21-2.48l9.08-24.59a1.93,1.93,0,0,1,1.39-1.21c4.61-1,33.4-3.9,32.59,19.55,0,0-3.88,15.51,3.14,28.82.61,1.15,1.49,2.07.61,3l-15.54-.42A1.91,1.91,0,0,1,487.52,215.32Z" transform="translate(-239.3 -80.79)"/><path class="cls-4" d="M502.1,198.09a1.43,1.43,0,0,0,1.43-1.43V168.23c0-2-3.81-4.82-7.14-6.93a20.24,20.24,0,0,0-9.84-3.11c-6.83-.33-18.59-.6-21.21,1.25-1.51,1.06-2.1,1.86-2.27,2.44a2.25,2.25,0,0,1-1.45,1.62c-1.82.56-4,1.95-2,5.36,0,0-6.61,1.65-1.67,4.93,0,0-4,4.76.57,4.13s3.67,2.69,3.67,2.69.3,2.14,1.7,1.17a14.92,14.92,0,0,1,11.64-2.58c5.45,1.11,5.13,6.88,4.79,9.12a1.17,1.17,0,0,0,.67,1.25,20.82,20.82,0,0,1,6.43,4.46,1,1,0,0,0,1.62,0c1.08-1.44,3.15-3.48,5.62-2.26a8.65,8.65,0,0,1,4.1,5.3,1.52,1.52,0,0,0,1.45,1.05Z" transform="translate(-239.3 -80.79)"/><ellipse class="cls-4" cx="466.47" cy="187.57" rx="0.73" ry="1.52" transform="translate(-264.73 2.8) rotate(-9.97)"/></g><g id="Tronco"><path class="cls-5" d="M485.67,214.94c-6.19,4.64-32.66,31.23-29.23,144.2a3.15,3.15,0,0,0,3.15,3.05h55.07a3.15,3.15,0,0,0,3.15-3.17c-.19-19-1.5-117.68-9.25-144.14a3.14,3.14,0,0,0-4.49-1.93c-2.93,1.56-8.11,3.13-15.85,1.45A3.13,3.13,0,0,0,485.67,214.94Z" transform="translate(-239.3 -80.79)"/><path class="cls-5" d="M475.78,323.8H494s2.37,16.61-9.1,16.61S475.78,323.8,475.78,323.8Z" transform="translate(-239.3 -80.79)"/></g><g id="Braços"><path class="cls-5" d="M461.26,271.75l-42.9,14.59a2,2,0,0,0-1.3,2.19L418.68,299l41.7-12.22Z" transform="translate(-239.3 -80.79)"/><path class="cls-1" d="M415.89,288.06l-15.19,1.61a3.05,3.05,0,0,1-1.55-.26l-4.73-2.23a5.35,5.35,0,0,0-2.08-.51c-3.14-.11-11.76.08-11.74,5.42a24,24,0,0,0,.91,7.08,2.9,2.9,0,0,0,2.35,2l.56.08a3,3,0,0,0,3.22-2.07,2.37,2.37,0,0,1,.4-.75c.81-1,4.58.51,5.85,1.05a2.88,2.88,0,0,0,.92.22c2.61.18,14.8,1,21.56,0a2.9,2.9,0,0,0,2.51-2.78l.22-5.9A2.9,2.9,0,0,0,415.89,288.06Z" transform="translate(-239.3 -80.79)"/><path class="cls-1" d="M421.59,293.93l-15.23-1.24a2.93,2.93,0,0,1-1.47-.54l-4.23-3.07a5.18,5.18,0,0,0-1.94-.88c-3.08-.7-11.58-2.12-12.55,3.14a23.9,23.9,0,0,0-.42,7.13,2.88,2.88,0,0,0,1.94,2.39l.53.19a3,3,0,0,0,3.55-1.43,2.28,2.28,0,0,1,.53-.67c1-.82,4.4,1.35,5.55,2.12a3.07,3.07,0,0,0,.87.38c2.53.67,14.36,3.69,21.17,4.05a2.91,2.91,0,0,0,3-2.27l1.31-5.75A2.91,2.91,0,0,0,421.59,293.93Z" transform="translate(-239.3 -80.79)"/><path class="cls-5" d="M501.52,234.13l-20.9,56.07a8.73,8.73,0,0,1-7.6,6.12l-52.85,9.44a.79.79,0,0,1-.91-.89L421,293.22a.91.91,0,0,1,.63-.74l38.51-12.15a7.79,7.79,0,0,0,5.95-5.16l17-42.1" transform="translate(-239.3 -80.79)"/></g><g id="Notebook"><path class="cls-6" d="M351.8,299.23,337,226.74a.89.89,0,0,0-.87-.7h0a2,2,0,0,0-1.95,2.39l15.07,73.85a1.61,1.61,0,0,0,1.58,1.29h76.52a.88.88,0,0,0,.89-.88v-1.4a.89.89,0,0,0-.89-.88H353.25A1.48,1.48,0,0,1,351.8,299.23Z" transform="translate(-239.3 -80.79)"/></g><g id="Cadeira"><polygon class="cls-7" points="184.96 397.22 189.71 397.22 201.84 292.59 196.57 292.59 184.96 397.22"/><polygon class="cls-7" points="266.2 397.46 270.86 396.54 261.94 289.13 256.77 290.16 266.2 397.46"/><path class="cls-7" d="M424.26,373.38h92c6.32-30.59,22.43-162.46,22.43-162.46l-10.55-2.11-22,151.38-81.92,3.17Z" transform="translate(-239.3 -80.79)"/></g><g id="Lâmpada"><rect class="cls-8" x="129.97" y="0.5" width="0.99" height="59.37"/><circle class="cls-9" cx="130.47" cy="88.79" r="4.64"/><path class="cls-6" d="M368.53,139.57,352,168.28a1.43,1.43,0,0,0,1.23,2.14h33.15a1.43,1.43,0,0,0,1.24-2.14L371,139.57a1.43,1.43,0,0,0-2.47,0L352,168.28a1.43,1.43,0,0,0,1.23,2.14h33.15a1.43,1.43,0,0,0,1.24-2.14L371,139.57A1.43,1.43,0,0,0,368.53,139.57Z" transform="translate(-239.3 -80.79)"/></g><g id="Vaso"><polygon class="cls-10" points="42.48 223.61 21.03 223.61 18.84 195.96 30.03 195.96 44.67 195.96 42.48 223.61"/><polygon class="cls-11" points="28.98 195.96 27.66 159.29 29.77 158.5 31.09 195.96 28.98 195.96"/><path class="cls-12" d="M264.35,259.54s-7.27,0-11.06-8.39C253.29,251.15,261,249.49,264.35,259.54Z" transform="translate(-239.3 -80.79)"/><path class="cls-12" d="M267,242.47s-10.7,0-16.28-12.34C250.68,230.13,262.07,227.69,267,242.47Z" transform="translate(-239.3 -80.79)"/><path class="cls-12" d="M267.45,241.18s-4-14.76,11-27.08C278.45,214.1,286,228.92,267.45,241.18Z" transform="translate(-239.3 -80.79)"/><path class="cls-12" d="M272.9,252.61s7.28,0,11.07-8.39C284,244.22,276.23,242.57,272.9,252.61Z" transform="translate(-239.3 -80.79)"/><path class="cls-12" d="M273.75,269s7.27,9.55,11.06,1.13C284.81,270.15,275.73,262.79,273.75,269Z" transform="translate(-239.3 -80.79)"/><line class="cls-8" x1="34.45" y1="188.22" x2="31.09" y2="189.73"/><path class="cls-12" d="M271.77,262.45s4.85,5.51,8.64-2.91C280.41,259.54,275.09,252.4,271.77,262.45Z" transform="translate(-239.3 -80.79)"/><path class="cls-13" d="M250.68,230.13s10.94,6.45,16.28,12.34" transform="translate(-239.3 -80.79)"/><path class="cls-14" d="M267.45,241.18s10.91-21.88,11-27.08" transform="translate(-239.3 -80.79)"/><path class="cls-14" d="M280.41,259.54s-5.91-1.3-8.64,2.91l-1.68.57" transform="translate(-239.3 -80.79)"/><path class="cls-8" d="M284.81,270.15" transform="translate(-239.3 -80.79)"/><path class="cls-14" d="M284.81,270.15s-2.68,1.65-10.86-1.67" transform="translate(-239.3 -80.79)"/><line class="cls-15" x1="28.41" y1="180.25" x2="25.05" y2="178.74"/><path class="cls-15" d="M253.29,251.15s9.71,6.58,10.58,8" transform="translate(-239.3 -80.79)"/><line class="cls-15" x1="30.4" y1="173.08" x2="33.6" y2="171.82"/><path class="cls-13" d="M273.29,252.27S284,244.61,284,244.22" transform="translate(-239.3 -80.79)"/></g><g id="Mesa"><rect class="cls-7" x="11.38" y="226.45" width="4.22" height="170.65"/><rect class="cls-7" x="175.63" y="226.52" width="4.22" height="170.59"/><rect class="cls-7" x="0.5" y="222.78" width="189.16" height="7.48" rx="3.39"/></g></svg>