<svg xmlns="http://www.w3.org/2000/svg" viewBox="0 0 570.87 491.89"><defs><style>.cls-1,.cls-3{fill:#eee;}.cls-1,.cls-10,.cls-11,.cls-12,.cls-13,.cls-14,.cls-15,.cls-16,.cls-18,.cls-2,.cls-3,.cls-4,.cls-5,.cls-6,.cls-7,.cls-8{stroke:#000;stroke-miterlimit:10;}.cls-1,.cls-12,.cls-13,.cls-14{stroke-width:1.5px;}.cls-2,.cls-7{fill:#ff9c00;}.cls-15,.cls-16,.cls-18,.cls-2,.cls-3,.cls-6{stroke-width:2px;}.cls-17,.cls-4,.cls-5,.cls-6{fill:#fff;}.cls-5{stroke-width:0.25px;}.cls-8{fill:#083b8a;}.cls-9{fill:#004a7a;}.cls-10,.cls-12{fill:#ddd;}.cls-11{fill:#fafafa;}.cls-13,.cls-16{fill:#fdfdfd;}.cls-14{fill:#ccc;}.cls-15{fill:#fcfcfc;}.cls-18{fill:none;}.cls-19{fill:#ff9d00;}</style></defs><g id="Luminária"><path class="cls-1" d="M246.26,383l-8.95-59.38c-.08-.78,1.87-2.46,2.48-2.94l46.36-38.93,1.19,1.58-46.79,39.51a2.28,2.28,0,0,0-.8,2l10,59.61Z" transform="translate(-88.72 -94.87)"/><path class="cls-1" d="M236.16,385.49l-6.9-63.22a2.25,2.25,0,0,1,.84-2l52.49-41.58,1.19,1.58L234,321.55a2.29,2.29,0,0,0-.81,2L241,385.07Z" transform="translate(-88.72 -94.87)"/><circle class="cls-2" cx="220.53" cy="195.82" r="8.9"/><ellipse class="cls-2" cx="156.39" cy="299.57" rx="14.77" ry="12.46"/><path class="cls-3" d="M288.06,285.29s-12.26-6.7-.59-17.3,18,2.35,18,2.35,10.35-4.29,22.4,9.08l-31.94,27.51a22.42,22.42,0,0,1-7.83-21.64Z" transform="translate(-88.72 -94.87)"/></g><g id="Livro"><polygon class="cls-4" points="183.29 301.47 183.29 308.99 130.41 308.86 130.28 301.34 183.29 301.47"/><line class="cls-5" x1="131.7" y1="302.97" x2="183.03" y2="302.97"/><line class="cls-5" x1="132.04" y1="304.43" x2="183.38" y2="304.43"/><line class="cls-5" x1="132.04" y1="305.93" x2="183.38" y2="305.93"/><line class="cls-5" x1="131.7" y1="306.92" x2="183.03" y2="306.92"/><path class="cls-6" d="M273.15,393.45H217.07a1,1,0,0,0-1,1v11.06a1,1,0,0,0,1,1h56.08c1.38.36,1.08-2.91,1.08-3.48L220.5,403l-.12-6.4,53.81.13v-2.22A1,1,0,0,0,273.15,393.45Z" transform="translate(-88.72 -94.87)"/></g><g id="Icons"><g id="Materiais"><path class="cls-7" d="M89.34,306.71l.41.13c.83,6.45,13.84,13.56,25.66,17.47s26.52,5.94,31,1.26l.45.15,12.41-37.56a5,5,0,0,0,2.39-2.73c.82-2.5-.77-5.3-3.86-8.08l17.38-52.61a4.24,4.24,0,0,0-2.7-5.36l-15.82-5.23a4.25,4.25,0,0,0-5.36,2.7l-16.1,48.72-.12,0c-1.3-.43-2.62-.83-3.94-1.2l5.47-26a1.83,1.83,0,0,0-.44-1.66l-1.71-15.92a1.43,1.43,0,0,0-2.78-.59l-8,13.86a1.57,1.57,0,0,0-.4.24l0,0a1.79,1.79,0,0,0-.63,1.08l-5.51,26.2c-7.81-.75-14,.29-15.25,4.1a4.66,4.66,0,0,0,0,2.86L89.8,305.19Zm67.4-26.09c1.7,1.75,2.17,3.06,1.92,3.82s-1.41,1.52-3.81,1.91Zm-3.11-63a1.81,1.81,0,0,1,2.28-1.15l15.83,5.23a1.81,1.81,0,0,1,1.15,2.28L169,235.83l-6.38-2.11a1,1,0,0,0-.84.08,1.11,1.11,0,0,0-.46.6,1,1,0,0,0,.64,1.33l6.38,2.1L167,241.91l-6.38-2.11a1,1,0,0,0-.84.08,1.08,1.08,0,0,0-.46.6,1,1,0,0,0,.64,1.32l6.38,2.11L165,248l-6.38-2.11a1,1,0,0,0-.84.08,1.09,1.09,0,0,0-.47.6,1,1,0,0,0,.65,1.32L164.3,250,163,254.05l-11-3.63a1,1,0,0,0-.84.08,1.08,1.08,0,0,0-.46.6,1,1,0,0,0,.64,1.32l11,3.63-1.35,4.08L154.56,258a1,1,0,0,0-.83.07,1.11,1.11,0,0,0-.47.61,1,1,0,0,0,.64,1.32l6.38,2.11-1.34,4.07-6.38-2.11a1,1,0,0,0-.84.08,1.09,1.09,0,0,0-.47.6,1,1,0,0,0,.65,1.32l6.38,2.11-1.35,4.07-6.38-2.11a1,1,0,0,0-.84.08,1.11,1.11,0,0,0-.46.6,1,1,0,0,0,.64,1.32l6.38,2.11-1.35,4.08-11-3.64a1,1,0,0,0-.84.08,1.13,1.13,0,0,0-.47.6,1,1,0,0,0,.64,1.33l11,3.63-1.34,4.07-6.38-2.11a1,1,0,0,0-.84.08,1.09,1.09,0,0,0-.47.6,1,1,0,0,0,.65,1.32l6.38,2.11-.08.24c-.6,0-1.21,0-1.81-.06a29.43,29.43,0,0,1-4.92-.37h0a4.74,4.74,0,0,0-1.34-.07A92.19,92.19,0,0,1,132,283.25ZM134.1,268.54l.12,0-4.63,14-.12,0c-.68-.22-1.34-.46-2-.69l3-14.43C131.7,267.78,132.89,268.15,134.1,268.54Zm-5.63,17c10.56,3.48,20.86,4.94,27.06,3.84L144.42,323c-.75,1.48-4.13,2.26-9,2.09a71.5,71.5,0,0,1-19-3.78A71.22,71.22,0,0,1,98.92,313c-4-2.78-6.29-5.42-6-7.07l11.16-33.83C108.18,276.76,117.68,282,128.47,285.58ZM130,229.22l2.48.53.58,5.41-5.77-1.22Zm3.43,10.22-8.69,41.29c-1.59-.62-3.32-1.33-5.38-2.22a3.74,3.74,0,0,0-.88-.42l-.2-.06-.62-.27-.78-.34,8.35-39.71Zm-19.88,25c1,0,2,.09,3,.18l-2.36,11.2c-1.3-.76-2.53-1.53-3.62-2.31-4.71-3.32-6-5.73-5.61-6.88S107.74,264.35,113.5,264.48Z" transform="translate(-88.72 -94.87)"/><path class="cls-7" d="M160.76,228.35a3.51,3.51,0,1,0-1.2-.69A3.49,3.49,0,0,0,160.76,228.35Zm1.43-4.33a1.06,1.06,0,1,1-1.34.68A1.07,1.07,0,0,1,162.19,224Z" transform="translate(-88.72 -94.87)"/></g><g id="Letras"><path class="cls-7" d="M569.12,296.79l9.2-18.77,18.31.05,9.16,18.72a7.16,7.16,0,0,0,6.12,4.26,4.89,4.89,0,0,0,2.14-.49,5.4,5.4,0,0,0,2.82-3.85,7.92,7.92,0,0,0-.73-5l-22.67-46.3a7.76,7.76,0,0,0-3.58-3.66l-.18-.11a4.76,4.76,0,0,0-2-.48h-.37a4.87,4.87,0,0,0-2.09.49,1,1,0,0,0-.17.1,7.82,7.82,0,0,0-3.6,3.67l-22.67,46.3a7.92,7.92,0,0,0-.73,5,5.39,5.39,0,0,0,2.81,3.85C563.72,302,567.42,300.26,569.12,296.79Zm-7.83-.73a4.7,4.7,0,0,1,.45-2.89l22.67-46.3a4.52,4.52,0,0,1,2.12-2.17l.1,0a.41.41,0,0,0,.11-.07,2,2,0,0,1,.63-.12h.19a2,2,0,0,1,.59.11l.24.13a4.52,4.52,0,0,1,2.12,2.17l22.67,46.3a4.7,4.7,0,0,1,.45,2.89,2.12,2.12,0,0,1-1,1.53c-1.2.59-3-.45-3.84-2.25l-10.07-20.57-22.43-.06-10.1,20.63c-.89,1.8-2.65,2.84-3.84,2.25A2.09,2.09,0,0,1,561.29,296.06Z" transform="translate(-88.72 -94.87)"/><path class="cls-7" d="M587.46,251.83l-8.92,18.23,17.87.05Zm0,7.51,3.65,7.45-7.29,0Z" transform="translate(-88.72 -94.87)"/><path class="cls-7" d="M647.67,263.66h0c-3.1,0-5.54,1.94-5.63,4.45A17,17,0,0,0,635,266.6a17.23,17.23,0,1,0,8,32.48,6,6,0,0,0,4.59,2h0a6.37,6.37,0,0,0,3.77-1.17,4.29,4.29,0,0,0,1.85-3.4l.07-28.22a4.1,4.1,0,0,0-1.25-2.92A6.14,6.14,0,0,0,647.67,263.66Zm2.25,32.81a1.12,1.12,0,0,1-.5.75,3.06,3.06,0,0,1-1.84.53c-1.25,0-2.22-.64-2.3-1.22a1.64,1.64,0,0,0-1-1.27,1.56,1.56,0,0,0-.67-.15,1.71,1.71,0,0,0-.92.28,13.92,13.92,0,1,1,0-23.12,1.66,1.66,0,0,0,2.58-1.36v-2.67c0-.53.91-1.28,2.33-1.28h0a2.93,2.93,0,0,1,2,.71.88.88,0,0,1,.29.58Z" transform="translate(-88.72 -94.87)"/><path class="cls-7" d="M635,273.51a10.32,10.32,0,1,0,10.32,10.31A10.32,10.32,0,0,0,635,273.51Zm0,17.33a7,7,0,1,1,7-7A7,7,0,0,1,635,290.84Z" transform="translate(-88.72 -94.87)"/></g><g id="Lâmpada"><path class="cls-7" d="M388,111.8a26,26,0,0,0-26,26,41.44,41.44,0,0,0,1.24,10.58c1.87,7.57,6.43,18,8,21.37A5.54,5.54,0,0,0,370.1,173a5.61,5.61,0,0,0,1.55,3.91,5.61,5.61,0,0,0-1.55,3.78,5.67,5.67,0,0,0,1.91,4.27,5.62,5.62,0,0,0-1.4,3.65,6.19,6.19,0,0,0,6.32,6l23.45.3h.09A6.64,6.64,0,0,0,405.1,193a5.6,5.6,0,0,0-.18-8.26,5.57,5.57,0,0,0-.14-7.54,5.56,5.56,0,0,0,0-7.64c1.61-3.56,6.06-13.75,7.89-21.21A40.88,40.88,0,0,0,414,137.79,26,26,0,0,0,388,111.8Zm14.61,78.61a3,3,0,0,1-2.14.8l-23.45-.3a2.57,2.57,0,0,1-2.74-2.31,2.34,2.34,0,0,1,1.89-2.11,1.82,1.82,0,0,0-.16-3.55,2.45,2.45,0,0,1-2.24-2.25,2.33,2.33,0,0,1,1.78-2.08,1.82,1.82,0,0,0,0-3.46,2.37,2.37,0,0,1-1.79-2.15,1.86,1.86,0,0,1,.37-1.1H402a2.11,2.11,0,0,1,.67,1.49,2.33,2.33,0,0,1-1.78,2.07,1.82,1.82,0,0,0,0,3.47,2.15,2.15,0,0,1-.1,4.26,1.81,1.81,0,0,0,.17,3.54,2.49,2.49,0,0,1,2.24,2.26A2.06,2.06,0,0,1,402.57,190.41Zm6.62-42.91c-1.78,7.21-6.29,17.49-7.77,20.77H374.5c-1.48-3.28-6-13.55-7.76-20.76a37.81,37.81,0,0,1-1.14-9.72,22.36,22.36,0,0,1,44.72,0A38.13,38.13,0,0,1,409.19,147.5Z" transform="translate(-88.72 -94.87)"/><path class="cls-7" d="M423.68,109.76l-11.05,6.06a.93.93,0,0,0-.37,1.28.88.88,0,0,0,.41.4,1,1,0,0,0,.87,0l11-6.07a.94.94,0,1,0-.91-1.65Z" transform="translate(-88.72 -94.87)"/><path class="cls-7" d="M407.28,113.11a1.1,1.1,0,0,0,1.3-.74l4.91-15.56a1.1,1.1,0,1,0-2.1-.67l-4.92,15.56a1.11,1.11,0,0,0,.73,1.39Z" transform="translate(-88.72 -94.87)"/><path class="cls-7" d="M384.44,120.24c-4.07.08-11.93,2.61-12.52,11.54a2.17,2.17,0,0,0,2,2.31h0a2.18,2.18,0,0,0,2.31-2,9.13,9.13,0,0,1,.27-1.66,7.66,7.66,0,0,1,6.08-5.54,9.85,9.85,0,0,1,1.94-.29,2.17,2.17,0,1,0-.1-4.34Z" transform="translate(-88.72 -94.87)"/></g><g id="Godê"><path class="cls-7" d="M95.2,495l-.11.36A41,41,0,0,0,134,544l1.37,0a41.2,41.2,0,0,0,29.05-12A41,41,0,0,0,134,462a42.64,42.64,0,0,0-6.75.77l-.21.06a5.61,5.61,0,0,0-3.71,3.16c-.89,2.22,0,4.6.73,5.88l.15.25.15.25.11.21a14.48,14.48,0,0,1-20.16,19.07l-2.72-.85h0a5.58,5.58,0,0,0-2.6.31A7,7,0,0,0,95.2,495Zm3.42,1.25a3.34,3.34,0,0,1,1.6-1.66,3,3,0,0,1,2.35.36l.39.2.82.41,2.18.86h0a18.1,18.1,0,0,0,22.1-24.6l.15-.23-.72-.93-.19-.34-.08-.13a3.65,3.65,0,0,1-.54-2.76,2.1,2.1,0,0,1,1.38-1,38.49,38.49,0,0,1,6.05-.69,37.39,37.39,0,1,1-25.19,63.81A37.37,37.37,0,0,1,98.62,496.2Z" transform="translate(-88.72 -94.87)"/><circle class="cls-8" cx="41.65" cy="432.63" r="8.24"/><circle class="cls-7" cx="25.16" cy="418.92" r="8.24"/><circle class="cls-7" cx="67.05" cy="424.39" r="8.24"/><circle class="cls-8" cx="68.11" cy="396.66" r="8.24"/><circle class="cls-7" cx="51.62" cy="382.42" r="8.24"/></g><g id="Lupa"><path id="Lupa-2" data-name="Lupa" class="cls-7" d="M658.88,535l-23.79-24.5a28.91,28.91,0,1,0-8,7.19l24.08,24.81Zm-40.23-21.51a21.56,21.56,0,1,1,14-27.06A21.56,21.56,0,0,1,618.65,513.51Z" transform="translate(-88.72 -94.87)"/><path class="cls-7" d="M607.6,475.64c-4.07.09-11.93,2.61-12.52,11.55a2.17,2.17,0,0,0,2,2.31h0a2.18,2.18,0,0,0,2.31-2,10.2,10.2,0,0,1,.26-1.67,7.7,7.7,0,0,1,6.09-5.54,10.28,10.28,0,0,1,1.94-.28,2.18,2.18,0,0,0-.1-4.35Z" transform="translate(-88.72 -94.87)"/></g></g><g id="Mesa"><rect id="Mesa-2" data-name="Mesa" class="cls-2" x="109.93" y="312.71" width="358.47" height="18.64" rx="5.93"/><g id="Camada_2" data-name="Camada 2"><path class="cls-9" d="M320.32,340.16c-.84,3.13-7.47,27.94-8,36.76a1,1,0,0,0,1,1.07h.09c4.19-.18,19.35-.66,25.59,1.77,7.28,2.83,10.42,15.57,10.11,20.32,0,0,4.45-11.93,10.31-14.45l33.21-.4a1,1,0,0,0,.92-.61l2.14-4.82a12.23,12.23,0,0,0,1-4.95h0a12.71,12.71,0,0,0-.29-2.68l-7.72-34.39a1,1,0,0,0-.93-.79c-4.95-.3-32.33-1.76-35.73,1.46,0,0-2.83-4.35-14.15-4.05-9.92.27-15.88,4.26-17.2,5.25A1,1,0,0,0,320.32,340.16Z" transform="translate(-88.72 -94.87)"/></g></g><g id="Computador"><rect class="cls-10" x="373.58" y="274.61" width="8.7" height="13.25"/><g id="Monitor"><path id="Monitor-2" data-name="Monitor" class="cls-2" d="M508.87,375.09l-80.21-5.91a2.7,2.7,0,0,1-2.7-2.7V318.06a2.7,2.7,0,0,1,2.7-2.7l80.21-4.69a2.7,2.7,0,0,1,2.7,2.7v59A2.7,2.7,0,0,1,508.87,375.09Z" transform="translate(-88.72 -94.87)"/><polygon id="Tela" class="cls-11" points="416.37 273.96 340.85 268.05 340.85 226.75 416.37 222.07 416.37 273.96"/></g><path id="CPU" class="cls-3" d="M435.83,383.91l69.13-2.6a.92.92,0,0,1,.89.94v25a.33.33,0,0,1-.32.34H436a.33.33,0,0,1-.31-.34l-.16-23A.33.33,0,0,1,435.83,383.91Z" transform="translate(-88.72 -94.87)"/><line class="cls-4" x1="368.63" y1="288.64" x2="368.63" y2="312.71"/><circle class="cls-7" cx="405.62" cy="301.05" r="4.15"/><circle class="cls-4" cx="405.62" cy="301.05" r="1.34"/><line class="cls-4" x1="357.74" y1="288.64" x2="357.74" y2="312.71"/></g><g id="Cadeira"><g id="pernas_cadeira" data-name="pernas cadeira"><polygon class="cls-12" points="234.13 478.48 228 478.48 224.63 368.86 234.13 368.86 234.13 478.48"/><polygon class="cls-13" points="304.81 491.14 297.62 491.14 293.27 379.21 304.81 379.21 304.81 491.14"/><polygon class="cls-1" points="344.63 469.25 339.87 469.25 335.11 370.09 344.63 371.27 344.63 469.25"/><polygon class="cls-14" points="273.69 455.27 270.13 455.27 265.81 338.85 273.69 338.85 273.69 455.27"/><rect class="cls-12" x="234.13" y="368.86" width="3.53" height="109.63"/><rect class="cls-1" x="344.34" y="365.93" width="3.53" height="103.32"/><rect class="cls-13" x="303.04" y="381.52" width="3.53" height="109.63"/><rect class="cls-14" x="273.9" y="345.65" width="3.53" height="109.63"/></g><path class="cls-15" d="M406.65,481.42l-99.36-9.88L302.41,314.1c0-7.76,5.4-14.1,12-14.1l80.24-6.74c6.6,0,12,6.35,12,14.1Z" transform="translate(-88.72 -94.87)"/><path class="cls-16" d="M406.65,463.73l34.35-8.3a2,2,0,0,1,2.47,1.94v10.41a2,2,0,0,1-1.37,1.9l-35.45,11.74Z" transform="translate(-88.72 -94.87)"/><polyline class="cls-3" points="352.29 360.56 317.94 356.74 317.94 368.86"/><g id="Camada_10" data-name="Camada 10"><g id="Camada_2-2" data-name="Camada 2"><path class="cls-9" d="M325.41,368.35c-.66,2.45-5.85,21.89-6.24,28.8a.8.8,0,0,0,.76.84H320c3.28-.15,15.16-.52,20.05,1.38,5.7,2.22,8.16,12.2,7.92,15.92,0,0,3.49-9.34,8.08-11.32l26-.31a.83.83,0,0,0,.72-.48l1.67-3.78a9.4,9.4,0,0,0,.8-3.88h0a9.77,9.77,0,0,0-.23-2.09L379,366.48a.81.81,0,0,0-.73-.63c-3.87-.22-25.33-1.37-28,1.15,0,0-2.22-3.4-11.09-3.17-7.77.21-12.44,3.34-13.48,4.11A.76.76,0,0,0,325.41,368.35Z" transform="translate(-88.72 -94.87)"/></g><g id="Folhas"><path id="Esquerda" class="cls-17" d="M327.07,369.87c-.56,2.73-4.14,20.18-4.46,24.66a.8.8,0,0,0,.75.85h.15c3.85-.47,19.33-1.79,24.27,6.46a.2.2,0,0,0,.37-.1l.84-32.12a.79.79,0,0,0-.44-.73,23,23,0,0,0-21.09.45A.82.82,0,0,0,327.07,369.87Z" transform="translate(-88.72 -94.87)"/><path id="Direita" class="cls-17" d="M351.69,369.18l-.46,30.93a.2.2,0,0,0,.2.2.21.21,0,0,0,.17-.08,36,36,0,0,1,2.68-3.71.83.83,0,0,1,.56-.23l26.27-.46a.8.8,0,0,0,.81-.79.57.57,0,0,0,0-.13c-.6-4-3.07-19.89-4.93-26.27a.77.77,0,0,0-.72-.57c-3.25-.18-19.73-1-24,.37A.79.79,0,0,0,351.69,369.18Z" transform="translate(-88.72 -94.87)"/><g id="Detalhes_direita" data-name="Detalhes direita"><path class="cls-18" d="M331,373.47s4.68-2.85,12.68,1.11" transform="translate(-88.72 -94.87)"/><path class="cls-18" d="M329.68,386.67s4.67-2.85,12.68,1.11" transform="translate(-88.72 -94.87)"/><path class="cls-18" d="M331,377.87S335.7,375,343.7,379" transform="translate(-88.72 -94.87)"/><path class="cls-18" d="M330.07,382.27s4.67-2.85,12.66,1.11" transform="translate(-88.72 -94.87)"/></g><g id="Detalhes_Esquerda" data-name="Detalhes Esquerda"><path class="cls-19" d="M354.24,371.88l.29,15.46a.8.8,0,0,0,.8.8h21.55a.8.8,0,0,0,.8-.8v-.08c-.28-3-1.33-13.07-3-16.15a.78.78,0,0,0-.67-.4c-2.59,0-16-.25-19.13.4A.79.79,0,0,0,354.24,371.88Z" transform="translate(-88.72 -94.87)"/><ellipse class="cls-9" cx="278.3" cy="297.47" rx="2.49" ry="1.94"/></g></g></g></g></svg>