<svg xmlns="http://www.w3.org/2000/svg" viewBox="0 0 133.4 98.13"><defs><style>.cls-1{fill:#fafafa;}.cls-1,.cls-2,.cls-3,.cls-4,.cls-5{stroke:#000;stroke-miterlimit:10;}.cls-2{fill:none;stroke-width:0.25px;}.cls-3{fill:#2bd6ee;}.cls-4{fill:#ff9c00;}.cls-5{fill:#083b8a;}</style></defs><g id="Livro_3" data-name="Livro 3"><rect class="cls-1" x="15.1" y="7.82" width="97.78" height="17.8"/><line class="cls-2" x1="15.1" y1="19.09" x2="112.88" y2="19.09"/><line class="cls-2" x1="15.1" y1="21.86" x2="112.88" y2="21.86"/><line class="cls-2" x1="15.1" y1="10.79" x2="112.88" y2="10.79"/><line class="cls-2" x1="15.4" y1="13.55" x2="113.18" y2="13.55"/><line class="cls-2" x1="15.1" y1="16.32" x2="112.88" y2="16.32"/><path class="cls-3" d="M437.64,188.32h0c0-2.24-1.51-4.06-3.36-4.06H332.9c-1.86,0-3.36,1.82-3.36,4.06v24.33c0,2.24,1.5,4,3.36,4H434.28c1.85,0,3.36-1.81,3.36-4h0c0-2.24-1.51-4.06-3.36-4.06H339.45c-1.86,0-3.36-1.81-3.36-4.05v-8.11c0-2.24,1.5-4.06,3.36-4.06h94.83C436.13,192.37,437.64,190.56,437.64,188.32Z" transform="translate(-320.5 -183.76)"/></g><g id="Livro_2" data-name="Livro 2"><rect class="cls-1" x="325.78" y="223.84" width="109.68" height="17.8" transform="translate(440.73 281.71) rotate(-180)"/><line class="cls-2" x1="114.96" y1="51.35" x2="5.28" y2="51.35"/><line class="cls-2" x1="114.96" y1="54.12" x2="5.28" y2="54.12"/><line class="cls-2" x1="114.96" y1="43.04" x2="5.28" y2="43.04"/><line class="cls-2" x1="114.62" y1="45.81" x2="4.94" y2="45.81"/><line class="cls-2" x1="114.96" y1="48.58" x2="5.28" y2="48.58"/><path class="cls-4" d="M321,220.57h0a3.92,3.92,0,0,1,3.77-4H438.49a3.91,3.91,0,0,1,3.76,4V244.9a3.92,3.92,0,0,1-3.76,4.06H324.77A3.93,3.93,0,0,1,321,244.9h0a3.92,3.92,0,0,1,3.77-4.05H431.14a3.92,3.92,0,0,0,3.76-4.06v-8.11a3.91,3.91,0,0,0-3.76-4.05H324.77A3.93,3.93,0,0,1,321,220.57Z" transform="translate(-320.5 -183.76)"/></g><g id="Livro_1" data-name="Livro 1"><rect class="cls-1" x="9.66" y="72.51" width="118.09" height="17.8"/><path class="cls-5" d="M453.4,253h0a4.05,4.05,0,0,0-4.06-4H326.9a4,4,0,0,0-4,4v24.33a4.05,4.05,0,0,0,4,4.06H449.34a4.06,4.06,0,0,0,4.06-4.06h0a4.05,4.05,0,0,0-4.06-4H334.81a4.05,4.05,0,0,1-4.05-4.06v-8.11a4,4,0,0,1,4.05-4.05H449.34A4.06,4.06,0,0,0,453.4,253Z" transform="translate(-320.5 -183.76)"/><line class="cls-2" x1="9.66" y1="83.79" x2="127.75" y2="83.79"/><line class="cls-2" x1="9.66" y1="86.55" x2="127.75" y2="86.55"/><line class="cls-2" x1="9.66" y1="75.48" x2="127.75" y2="75.48"/><line class="cls-2" x1="10.03" y1="78.25" x2="128.12" y2="78.25"/><line class="cls-2" x1="9.66" y1="81.02" x2="127.75" y2="81.02"/></g></svg>