<svg id="Camada_1" data-name="Camada 1" xmlns="http://www.w3.org/2000/svg" viewBox="0 0 270.91 147.39"><defs><style>.cls-1{fill:#083b8a;}.cls-1,.cls-2,.cls-3{stroke:#000;stroke-miterlimit:10;}.cls-2{fill:#ff9c00;}.cls-3{fill:#2bd6ee;}</style></defs><circle class="cls-1" cx="63.91" cy="44.86" r="30.49"/><circle class="cls-2" cx="206.99" cy="43.94" r="30.49"/><circle class="cls-3" cx="133.29" cy="30.99" r="30.49"/><path class="cls-1" d="M253,274.73a63.41,63.41,0,0,0-63.42,63.42H316.38A63.41,63.41,0,0,0,253,274.73Z" transform="translate(-189.05 -191.26)"/><path class="cls-2" d="M396,273.81a63.41,63.41,0,0,0-63.41,63.42H459.46A63.41,63.41,0,0,0,396,273.81Z" transform="translate(-189.05 -191.26)"/><path class="cls-3" d="M322.34,261.17a63.41,63.41,0,0,0-63.41,63.42H385.76A63.42,63.42,0,0,0,322.34,261.17Z" transform="translate(-189.05 -191.26)"/></svg>